<svg width="15" height="15" viewBox="0 0 15 15" fill="none" xmlns="http://www.w3.org/2000/svg">
<path fill-rule="evenodd" clip-rule="evenodd" d="M1.90321 7.29676C1.90321 10.341 4.11041 12.4147 6.58893 12.8439C6.87255 12.893 7.06266 13.1627 7.01355 13.4464C6.96444 13.73 6.69471 13.9201 6.41109 13.871C3.49942 13.3668 0.86084 10.9127 0.86084 7.29676C0.860839 5.76008 1.55996 4.55244 2.37639 3.63376C2.96124 2.97567 3.63034 2.44134 4.16846 2.03201H2.53205C2.25591 2.03201 2.03205 1.80815 2.03205 1.53201C2.03205 1.25587 2.25591 1.03201 2.53205 1.03201H5.53205C5.80819 1.03201 6.03205 1.25587 6.03205 1.53201V4.53201C6.03205 4.80815 5.80819 5.03201 5.53205 5.03201C5.25591 5.03201 5.03205 4.80815 5.03205 4.53201V2.68644L5.03054 2.68758L5.03045 2.68765L5.03044 2.68766H5.03043C4.45896 3.11867 3.76059 3.64537 3.15554 4.32619C2.44102 5.1302 1.90321 6.10153 1.90321 7.29676ZM13.0109 7.7032C13.0109 4.69114 10.8505 2.62959 8.40384 2.17028C8.12093 2.11717 7.93465 1.84478 7.98776 1.56187C8.04087 1.27897 8.31326 1.09269 8.59616 1.1458C11.4704 1.6854 14.0532 4.12604 14.0532 7.7032C14.0532 9.23987 13.3541 10.4475 12.5377 11.3662C11.9528 12.0243 11.2837 12.5586 10.7456 12.968H12.3821C12.6582 12.968 12.8821 13.1918 12.8821 13.468C12.8821 13.7441 12.6582 13.968 12.3821 13.968H9.38205C9.10591 13.968 8.88205 13.7441 8.88205 13.468V10.468C8.88205 10.1918 9.10591 9.96795 9.38205 9.96795C9.65819 9.96795 9.88205 10.1918 9.88205 10.468V12.3135L9.88362 12.3123C10.4551 11.8813 11.1535 11.3546 11.7585 10.6738C12.4731 9.86975 13.0109 8.89843 13.0109 7.7032Z" fill="black"/>
</svg>
